<svg width="1452" height="614" viewBox="0 0 1452 614" fill="none" xmlns="http://www.w3.org/2000/svg">
<g clip-path="url(#clip0_546_17318)">
<path d="M189.859 194.209V8.87832e-06C152.574 -0.0113452 116.111 10.8677 85.0216 31.2792C53.9324 51.6908 29.594 80.7306 15.0442 114.774C0.494445 148.818 -3.62215 186.357 3.20825 222.706C10.0387 259.055 27.5135 292.604 53.4516 319.166C79.3897 345.727 112.642 364.125 149.058 372.061C185.474 379.998 223.441 377.123 258.22 363.795C292.999 350.466 323.048 327.275 344.619 297.116C366.189 266.956 378.324 231.165 379.509 194.209H189.859Z" fill="#5CC8FC"/>
<path d="M121.266 427.305H258.341C261.227 427.305 264.084 427.869 266.749 428.964C269.415 430.06 271.836 431.665 273.876 433.69C275.915 435.714 277.532 438.117 278.635 440.761C279.737 443.405 280.303 446.239 280.301 449.1C280.301 454.876 277.987 460.414 273.869 464.498C269.751 468.582 264.165 470.876 258.341 470.876H121.266C115.442 470.876 109.856 468.582 105.738 464.498C101.62 460.414 99.3066 454.876 99.3066 449.1C99.3041 446.239 99.8702 443.405 100.973 440.761C102.075 438.117 103.692 435.714 105.732 433.69C107.771 431.665 110.192 430.06 112.858 428.964C115.523 427.869 118.38 427.305 121.266 427.305Z" fill="#FFCB00"/>
<path d="M121.266 498.35H258.341C261.227 498.35 264.084 498.914 266.749 500.009C269.415 501.105 271.836 502.71 273.876 504.735C275.915 506.759 277.532 509.162 278.635 511.806C279.737 514.45 280.303 517.284 280.301 520.145C280.301 525.921 277.987 531.459 273.869 535.543C269.751 539.627 264.165 541.921 258.341 541.921H121.266C115.442 541.921 109.856 539.627 105.738 535.543C101.62 531.459 99.3066 525.921 99.3066 520.145C99.3041 517.284 99.8702 514.45 100.973 511.806C102.075 509.162 103.692 506.759 105.732 504.735C107.771 502.71 110.192 501.105 112.858 500.009C115.523 498.914 118.38 498.35 121.266 498.35Z" fill="#FFCB00"/>
<path d="M189.804 613.999C177.307 613.984 165.326 609.054 156.489 600.291C147.653 591.528 142.681 579.647 142.666 567.254H237.135C237.104 579.675 232.101 591.577 223.226 600.342C214.351 609.107 202.33 614.02 189.804 613.999Z" fill="#FFCB00"/>
<path d="M688.424 406.428C684.127 415.269 678.359 423.329 671.362 430.269C657.617 443.97 640.526 453.903 621.756 459.1C612.667 461.616 603.276 462.903 593.84 462.924C579.123 463.09 564.555 460.001 551.194 453.881C538.616 448.098 527.295 439.942 517.86 429.868C508.473 419.732 501.107 407.925 496.152 395.071C490.577 380.474 487.965 364.929 488.465 349.329C488.964 333.728 492.566 318.379 499.063 304.162C506.01 289.281 515.746 275.844 527.75 264.567C539.87 253.289 553.997 244.342 569.413 238.183C585.289 231.773 602.282 228.525 619.423 228.623C628.067 228.634 636.693 229.401 645.2 230.918C654.076 232.54 662.643 235.527 670.591 239.77C673.845 241.229 676.508 243.735 678.148 246.882C679.496 249.569 680.22 252.522 680.269 255.523C680.037 260.774 678.141 265.818 674.851 269.939C671.227 274.935 665.282 279.486 657.018 283.59H655.09C647.088 275.048 637.802 267.786 627.559 262.062C618.087 257.283 607.569 254.905 596.944 255.141C587.043 254.917 577.244 257.166 568.449 261.68C560.482 265.872 553.539 271.746 548.109 278.887C542.526 286.381 538.323 294.795 535.693 303.741C532.848 313.156 531.412 322.935 531.433 332.763C531.382 345.027 533.282 357.221 537.062 368.898C540.52 379.902 545.968 390.19 553.141 399.259C560.121 408.013 568.91 415.184 578.918 420.289C589.79 425.698 601.826 428.401 613.987 428.166C626.293 428.2 638.46 425.591 649.653 420.519C660.991 415.424 670.566 407.132 677.184 396.677L688.424 406.428Z" fill="#5CC8FC"/>
<path d="M716.322 348.058C716.23 316.593 728.377 286.304 750.234 263.495C760.788 252.679 773.359 243.998 787.25 237.934C801.664 231.655 817.257 228.481 833 228.623C849.462 228.381 865.805 231.417 881.063 237.551C894.95 243.192 907.541 251.562 918.079 262.157C928.347 272.635 936.385 285.054 941.716 298.674C950.327 320.409 952.494 344.131 947.961 367.046C943.428 389.962 932.385 411.115 916.132 428.013C905.538 438.869 892.895 447.554 878.923 453.574C864.452 459.878 848.805 463.09 833 463C816.591 463.22 800.307 460.144 785.129 453.957C771.315 448.296 758.792 439.934 748.306 429.37C738.021 418.902 729.975 406.481 724.65 392.853C719.036 378.58 716.209 363.378 716.322 348.058ZM838.032 444.168C848.386 444.456 858.586 441.637 867.298 436.081C875.45 430.695 882.324 423.617 887.445 415.337C892.85 406.549 896.759 396.937 899.012 386.888C901.444 376.552 902.68 365.975 902.694 355.361C902.652 342.7 901.282 330.077 898.607 317.697C896.132 305.5 891.755 293.76 885.632 282.901C879.911 272.796 872.011 264.068 862.497 257.339C853.05 250.686 841.611 247.359 828.18 247.359C817.736 247.035 807.428 249.775 798.548 255.236C790.392 260.489 783.559 267.527 778.574 275.808C773.32 284.63 769.519 294.227 767.315 304.238C764.874 314.546 763.632 325.099 763.614 335.688C763.678 348.105 765.107 360.477 767.874 372.587C770.496 384.834 774.94 396.626 781.061 407.575C786.8 417.827 794.689 426.739 804.197 433.71C814.017 440.774 825.903 444.448 838.032 444.168Z" fill="#5CC8FC"/>
<path d="M1190.38 406.428C1186.08 415.269 1180.32 423.329 1173.32 430.269C1159.57 443.97 1142.48 453.903 1123.71 459.1C1114.62 461.616 1105.23 462.903 1095.8 462.924C1081.08 463.09 1066.51 460.001 1053.15 453.881C1040.6 448.114 1029.3 439.985 1019.87 429.944C1010.49 419.809 1003.12 408.002 998.165 395.148C992.591 380.551 989.979 365.006 990.478 349.405C990.978 333.804 994.579 318.455 1001.08 304.238C1008.02 289.357 1017.76 275.921 1029.76 264.643C1041.86 253.344 1055.97 244.372 1071.37 238.183C1087.24 231.773 1104.24 228.525 1121.38 228.623C1130.02 228.634 1138.65 229.401 1147.16 230.918C1156.03 232.54 1164.6 235.527 1172.55 239.77C1175.8 241.229 1178.46 243.735 1180.1 246.882C1181.45 249.569 1182.18 252.522 1182.22 255.523C1181.99 260.774 1180.1 265.818 1176.81 269.939C1173.18 274.935 1167.24 279.486 1158.97 283.59H1157.05C1149.04 275.048 1139.76 267.786 1129.51 262.062C1120.06 257.253 1109.55 254.842 1098.92 255.045C1089.02 254.822 1079.22 257.07 1070.42 261.584C1062.46 265.776 1055.51 271.65 1050.08 278.791C1044.5 286.285 1040.3 294.7 1037.67 303.645C1034.81 313.065 1033.36 322.85 1033.37 332.687C1033.32 344.95 1035.22 357.145 1039 368.821C1042.46 379.825 1047.9 390.113 1055.08 399.182C1062.06 407.937 1070.85 415.108 1080.85 420.213C1091.73 425.621 1103.76 428.324 1115.92 428.09C1128.23 428.123 1140.4 425.514 1151.59 420.442C1162.93 415.347 1172.5 407.055 1179.12 396.601L1190.38 406.428Z" fill="#FFCB00"/>
<path d="M1218.28 348.059C1218.19 316.594 1230.33 286.305 1252.19 263.496C1262.74 252.68 1275.31 243.999 1289.21 237.934C1303.62 231.655 1319.21 228.482 1334.95 228.623C1351.42 228.412 1367.77 231.481 1383.02 237.648C1396.9 243.288 1409.5 251.658 1420.03 262.253C1430.3 272.731 1438.34 285.15 1443.67 298.77C1452.28 320.505 1454.45 344.228 1449.92 367.143C1445.38 390.058 1434.34 411.211 1418.09 428.109C1407.49 438.965 1394.85 447.65 1380.88 453.671C1366.41 459.974 1350.76 463.186 1334.95 463.096C1318.55 463.317 1302.26 460.241 1287.08 454.053C1273.26 448.364 1260.74 439.969 1250.26 429.371C1239.98 418.903 1231.93 406.482 1226.61 392.854C1220.99 378.581 1218.16 363.379 1218.28 348.059ZM1339.91 444.169C1350.26 444.457 1360.46 441.638 1369.18 436.082C1377.33 430.696 1384.2 423.618 1389.32 415.338C1394.73 406.549 1398.64 396.938 1400.89 386.889C1403.32 376.553 1404.56 365.976 1404.57 355.362C1404.53 342.701 1403.16 330.078 1400.49 317.698C1398.01 305.501 1393.63 293.761 1387.51 282.902C1381.79 272.797 1373.89 264.069 1364.38 257.34C1354.93 250.687 1343.49 247.36 1330.06 247.36C1319.61 247.039 1309.29 249.779 1300.41 255.237C1292.26 260.497 1285.44 267.533 1280.45 275.809C1275.14 284.62 1271.28 294.218 1269.02 304.238C1266.66 314.557 1265.5 325.109 1265.57 335.689C1265.63 348.105 1267.06 360.478 1269.83 372.588C1272.45 384.835 1276.89 396.626 1283.02 407.575C1288.75 417.832 1296.64 426.745 1306.15 433.711C1315.95 440.759 1327.81 444.432 1339.91 444.169Z" fill="#FFCB00"/>
</g>
<defs>
<clipPath id="clip0_546_17318">
<rect width="1452" height="614" fill="white"/>
</clipPath>
</defs>
</svg>
