<svg width="1517" height="641" viewBox="0 0 1517 641" fill="none" xmlns="http://www.w3.org/2000/svg">
<g clip-path="url(#clip0_546_15544)">
<path d="M198.358 202.749V9.26873e-06C159.404 -0.0118441 121.309 11.3456 88.8279 32.6547C56.3469 53.9638 30.9189 84.2806 15.7178 119.821C0.516754 155.362 -3.78412 194.552 3.35205 232.499C10.4882 270.447 28.7453 305.471 55.8446 333.201C82.9438 360.93 117.685 380.137 155.731 388.422C193.778 396.708 233.444 393.707 269.78 379.792C306.115 365.878 337.51 341.667 360.046 310.181C382.582 278.696 395.26 241.33 396.499 202.749H198.358Z" fill="#1B1B87"/>
<path d="M126.694 446.096H269.906C272.921 446.096 275.906 446.684 278.69 447.828C281.475 448.972 284.005 450.648 286.136 452.761C288.266 454.874 289.956 457.383 291.108 460.144C292.259 462.904 292.851 465.862 292.848 468.85C292.848 474.879 290.431 480.661 286.129 484.925C281.826 489.188 275.991 491.583 269.906 491.583H126.694C120.609 491.583 114.774 489.188 110.472 484.925C106.169 480.661 103.752 474.879 103.752 468.85C103.749 465.862 104.341 462.904 105.493 460.144C106.644 457.383 108.334 454.874 110.464 452.761C112.595 450.648 115.125 448.972 117.91 447.828C120.695 446.684 123.68 446.096 126.694 446.096Z" fill="#FFCB00"/>
<path d="M126.694 520.266H269.906C272.921 520.266 275.906 520.854 278.69 521.998C281.475 523.142 284.005 524.818 286.136 526.931C288.266 529.044 289.956 531.553 291.108 534.313C292.259 537.074 292.851 540.032 292.848 543.02C292.848 549.049 290.431 554.831 286.129 559.095C281.826 563.358 275.991 565.753 269.906 565.753H126.694C120.609 565.753 114.774 563.358 110.472 559.095C106.169 554.831 103.752 549.049 103.752 543.02C103.749 540.032 104.341 537.074 105.493 534.313C106.644 531.553 108.334 529.044 110.464 526.931C112.595 524.818 115.125 523.142 117.91 521.998C120.695 520.854 123.68 520.266 126.694 520.266Z" fill="#FFCB00"/>
<path d="M198.301 641C185.244 640.984 172.727 635.838 163.495 626.689C154.262 617.541 149.069 605.137 149.053 592.199H247.75C247.718 605.167 242.492 617.591 233.219 626.742C223.947 635.893 211.387 641.021 198.301 641Z" fill="#FFCB00"/>
<path d="M719.241 424.3C714.752 433.53 708.726 441.944 701.415 449.189C687.055 463.492 669.199 473.862 649.589 479.288C640.093 481.915 630.282 483.258 620.423 483.28C605.048 483.453 589.827 480.228 575.868 473.839C562.728 467.802 550.899 459.287 541.042 448.77C531.235 438.189 523.539 425.863 518.362 412.444C512.538 397.205 509.809 380.976 510.331 364.689C510.852 348.403 514.615 332.378 521.403 317.536C528.662 302.001 538.833 287.974 551.375 276.2C564.037 264.426 578.797 255.086 594.903 248.656C611.489 241.964 629.243 238.573 647.152 238.676C656.182 238.687 665.194 239.489 674.082 241.071C683.356 242.765 692.306 245.883 700.61 250.313C704.01 251.836 706.792 254.452 708.505 257.737C709.913 260.543 710.671 263.626 710.721 266.759C710.478 272.241 708.498 277.507 705.061 281.809C701.274 287.025 695.064 291.775 686.429 296.06H684.415C676.055 287.142 666.353 279.561 655.652 273.585C645.756 268.596 634.766 266.113 623.666 266.36C613.322 266.127 603.085 268.474 593.896 273.186C585.572 277.563 578.318 283.695 572.645 291.15C566.812 298.974 562.421 307.758 559.674 317.097C556.701 326.926 555.201 337.135 555.222 347.396C555.169 360.198 557.154 372.929 561.104 385.119C564.716 396.607 570.409 407.347 577.902 416.815C585.194 425.955 594.377 433.441 604.833 438.77C616.192 444.416 628.766 447.239 641.472 446.994C654.329 447.029 667.041 444.305 678.735 439.01C690.58 433.691 700.584 425.034 707.498 414.12L719.241 424.3Z" fill="#1B1B87"/>
<path d="M748.388 363.363C748.293 330.514 760.983 298.894 783.819 275.082C794.845 263.79 807.979 254.727 822.492 248.396C837.551 241.841 853.842 238.528 870.29 238.676C887.489 238.424 904.564 241.593 920.504 247.997C935.013 253.886 948.168 262.624 959.178 273.685C969.905 284.624 978.303 297.588 983.872 311.808C992.869 334.498 995.133 359.264 990.397 383.187C985.661 407.11 974.124 429.193 957.143 446.834C946.075 458.167 932.866 467.234 918.269 473.52C903.15 480.101 886.802 483.453 870.29 483.36C853.146 483.59 836.133 480.378 820.276 473.919C805.843 468.009 792.759 459.279 781.804 448.251C771.059 437.323 762.653 424.356 757.09 410.128C751.224 395.227 748.271 379.357 748.388 363.363ZM875.547 463.7C886.364 464 897.021 461.058 906.123 455.257C914.64 449.635 921.822 442.245 927.172 433.601C932.819 424.426 936.903 414.392 939.257 403.901C941.798 393.111 943.089 382.068 943.104 370.988C943.06 357.77 941.629 344.592 938.834 331.667C936.248 318.934 931.675 306.678 925.278 295.341C919.301 284.792 911.048 275.68 901.107 268.655C891.238 261.709 879.286 258.236 865.254 258.236C854.343 257.898 843.573 260.759 834.295 266.46C825.774 271.944 818.636 279.291 813.428 287.936C807.938 297.146 803.967 307.166 801.665 317.616C799.114 328.378 797.816 339.394 797.797 350.449C797.865 363.412 799.357 376.329 802.249 388.971C804.987 401.756 809.631 414.067 816.026 425.497C822.021 436.2 830.264 445.504 840.197 452.782C850.457 460.157 862.875 463.992 875.547 463.7Z" fill="#1B1B87"/>
<path d="M1243.67 424.3C1239.18 433.53 1233.15 441.944 1225.84 449.189C1211.48 463.492 1193.63 473.862 1174.01 479.288C1164.52 481.915 1154.71 483.258 1144.85 483.28C1129.47 483.453 1114.25 480.228 1100.29 473.839C1087.18 467.819 1075.37 459.332 1065.53 448.85C1055.72 438.269 1048.03 425.943 1042.85 412.524C1037.02 397.285 1034.29 381.056 1034.82 364.769C1035.34 348.482 1039.1 332.458 1045.89 317.616C1053.15 302.081 1063.32 288.053 1075.86 276.28C1088.5 264.484 1103.24 255.117 1119.33 248.656C1135.92 241.964 1153.67 238.573 1171.58 238.676C1180.61 238.687 1189.62 239.489 1198.51 241.071C1207.78 242.765 1216.73 245.883 1225.04 250.313C1228.44 251.836 1231.22 254.452 1232.93 257.737C1234.34 260.543 1235.1 263.626 1235.15 266.759C1234.9 272.241 1232.92 277.507 1229.49 281.809C1225.7 287.025 1219.49 291.775 1210.86 296.06H1208.84C1200.48 287.142 1190.78 279.561 1180.08 273.585C1170.2 268.565 1159.21 266.048 1148.11 266.26C1137.77 266.027 1127.53 268.374 1118.34 273.086C1110.02 277.463 1102.76 283.595 1097.09 291.05C1091.26 298.874 1086.87 307.658 1084.12 316.997C1081.13 326.831 1079.62 337.046 1079.63 347.316C1079.57 360.118 1081.56 372.849 1085.51 385.039C1089.12 396.527 1094.81 407.267 1102.31 416.735C1109.6 425.875 1118.78 433.361 1129.24 438.69C1140.6 444.337 1153.17 447.159 1165.88 446.914C1178.73 446.949 1191.45 444.225 1203.14 438.93C1214.99 433.611 1224.99 424.955 1231.9 414.04L1243.67 424.3Z" fill="#FFCB00"/>
<path d="M1272.81 363.364C1272.72 330.515 1285.41 298.895 1308.24 275.083C1319.27 263.791 1332.4 254.728 1346.92 248.397C1361.98 241.842 1378.27 238.529 1394.72 238.677C1411.92 238.456 1429 241.66 1444.93 248.098C1459.44 253.986 1472.59 262.724 1483.6 273.785C1494.33 284.724 1502.73 297.689 1508.3 311.908C1517.29 334.599 1519.56 359.364 1514.82 383.287C1510.09 407.21 1498.55 429.293 1481.57 446.934C1470.5 458.268 1457.29 467.335 1442.69 473.62C1427.58 480.201 1411.23 483.554 1394.72 483.46C1377.57 483.69 1360.56 480.479 1344.7 474.019C1330.26 468.08 1317.18 459.316 1306.23 448.252C1295.48 437.323 1287.08 424.356 1281.52 410.129C1275.65 395.228 1272.7 379.358 1272.81 363.364ZM1399.89 463.7C1410.71 464.001 1421.37 461.058 1430.47 455.257C1438.98 449.635 1446.17 442.246 1451.52 433.601C1457.16 424.427 1461.25 414.392 1463.6 403.902C1466.14 393.111 1467.43 382.069 1467.45 370.988C1467.41 357.77 1465.97 344.593 1463.18 331.668C1460.59 318.935 1456.02 306.679 1449.62 295.342C1443.65 284.793 1435.39 275.68 1425.45 268.656C1415.58 261.71 1403.63 258.237 1389.6 258.237C1378.68 257.902 1367.91 260.762 1358.62 266.46C1350.11 271.952 1342.98 279.298 1337.77 287.937C1332.22 297.136 1328.19 307.156 1325.83 317.617C1323.37 328.389 1322.16 339.405 1322.22 350.45C1322.29 363.413 1323.78 376.33 1326.67 388.972C1329.41 401.757 1334.06 414.067 1340.45 425.498C1346.44 436.205 1354.68 445.511 1364.62 452.782C1374.86 460.14 1387.25 463.975 1399.89 463.7Z" fill="#FFCB00"/>
</g>
<defs>
<clipPath id="clip0_546_15544">
<rect width="1517" height="641" fill="white"/>
</clipPath>
</defs>
</svg>
